<svg xmlns="http://www.w3.org/2000/svg" width="256" height="256"><defs><linearGradient id="a" x1="13.7%" x2="46.9%" y1="23.1%" y2="67.9%"><stop offset="0%" stop-color="#3B395F"/><stop offset="29.6%" stop-color="#333356"/><stop offset="77.8%" stop-color="#1F223E"/><stop offset="100%" stop-color="#131830"/></linearGradient><linearGradient id="b" x1="36.7%" x2="57.9%" y1="28.4%" y2="102.7%"><stop offset="0%" stop-color="#3B395F"/><stop offset="29.6%" stop-color="#333356"/><stop offset="77.8%" stop-color="#1F223E"/><stop offset="100%" stop-color="#131830"/></linearGradient><linearGradient id="c" x1="73.9%" x2="-10.6%" y1="51.1%" y2="49%"><stop offset="0%" stop-color="#131830" stop-opacity="0"/><stop offset="100%" stop-color="#131830"/></linearGradient><linearGradient id="d" x1="55.8%" x2="-15.9%" y1="52.4%" y2="27.5%"><stop offset="0%" stop-color="#131830" stop-opacity="0"/><stop offset="100%" stop-color="#131830"/></linearGradient><linearGradient id="e" x1="0%" x2="100%" y1="50%" y2="50%"><stop offset="0%" stop-color="#FFC738"/><stop offset="42.9%" stop-color="#FFBB23"/><stop offset="100%" stop-color="#FFA700"/></linearGradient><linearGradient id="f" x1="44.2%" x2="58.4%" y1="33.7%" y2="73.6%"><stop offset="0%" stop-color="#FFC738"/><stop offset="42.9%" stop-color="#FFBB23"/><stop offset="100%" stop-color="#FFA700"/></linearGradient><linearGradient id="g" x1="34.5%" x2="72%" y1="99.3%" y2="15.1%"><stop offset="0%" stop-color="#3B395F"/><stop offset="29.6%" stop-color="#333356"/><stop offset="77.8%" stop-color="#1F223E"/><stop offset="100%" stop-color="#131830"/></linearGradient><linearGradient id="i" x1="0%" x2="100%" y1="50%" y2="50%"><stop offset="0%" stop-color="#3B395F"/><stop offset="29.6%" stop-color="#333356"/><stop offset="77.8%" stop-color="#1F223E"/><stop offset="100%" stop-color="#131830"/></linearGradient><linearGradient id="j" x1="45.7%" x2="18.1%" y1="44.7%" y2="18.5%"><stop offset="0%" stop-color="#131830" stop-opacity="0"/><stop offset="100%" stop-color="#131830"/></linearGradient><linearGradient id="k" x1="30.8%" x2="53%" y1="51.5%" y2="51.4%"><stop offset="0%" stop-color="#FF4974"/><stop offset="32.6%" stop-color="#FE4672"/><stop offset="53.2%" stop-color="#FB3E6C"/><stop offset="70.5%" stop-color="#F52F60"/><stop offset="85.9%" stop-color="#EE1A51"/><stop offset="100%" stop-color="#E4003D"/></linearGradient><linearGradient id="l" x1="47.2%" x2="53.1%" y1="51%" y2="50.9%"><stop offset="0%" stop-color="#FFC738"/><stop offset="48.7%" stop-color="#FFC636"/><stop offset="67.5%" stop-color="#FFC22F"/><stop offset="81%" stop-color="#FFBB23"/><stop offset="92%" stop-color="#FFB112"/><stop offset="100%" stop-color="#FFA700"/></linearGradient><linearGradient id="m" x1="33.3%" x2="60.2%" y1="47.3%" y2="65.1%"><stop offset="0%" stop-color="#33D699"/><stop offset="84.2%" stop-color="#31B986"/><stop offset="100%" stop-color="#24B47E"/></linearGradient><linearGradient id="n" x1="78.1%" x2="8.1%" y1="64.6%" y2="21.8%"><stop offset="0%" stop-color="#0D94FE" stop-opacity="0"/><stop offset="51.4%" stop-color="#24B47E" stop-opacity=".5"/><stop offset="100%" stop-color="#24B47E"/></linearGradient><linearGradient id="o" x1="39.5%" x2="64.8%" y1="41.6%" y2="66.7%"><stop offset="0%" stop-color="#FFC738"/><stop offset="48.7%" stop-color="#FFC636"/><stop offset="67.5%" stop-color="#FFC22F"/><stop offset="81%" stop-color="#FFBB23"/><stop offset="92%" stop-color="#FFB112"/><stop offset="100%" stop-color="#FFA700"/></linearGradient><linearGradient id="p" x1="42.4%" x2="61.6%" y1="43%" y2="68.4%"><stop offset="0%" stop-color="#FFC738"/><stop offset="48.7%" stop-color="#FFC636"/><stop offset="67.5%" stop-color="#FFC22F"/><stop offset="81%" stop-color="#FFBB23"/><stop offset="92%" stop-color="#FFB112"/><stop offset="100%" stop-color="#FFA700"/></linearGradient><linearGradient id="q" x1="72.7%" x2="-5.3%" y1="73%" y2="-22.3%"><stop offset="0%" stop-color="#E58200" stop-opacity="0"/><stop offset="4%" stop-color="#E27F04" stop-opacity="0"/><stop offset="46.7%" stop-color="#C15D2F" stop-opacity=".5"/><stop offset="80.2%" stop-color="#AD4949" stop-opacity=".8"/><stop offset="100%" stop-color="#A64153"/></linearGradient><linearGradient id="r" x1="0%" x2="100%" y1="50%" y2="50%"><stop offset="0%" stop-color="#FFC738"/><stop offset="42.9%" stop-color="#FFBB23"/><stop offset="100%" stop-color="#FFA700"/></linearGradient><linearGradient id="s" x1="0%" x2="100%" y1="50%" y2="50%"><stop offset="0%" stop-color="#FFC738"/><stop offset="42.9%" stop-color="#FFBB23"/><stop offset="100%" stop-color="#FFA700"/></linearGradient><radialGradient id="h" cx="50%" cy="43.8%" r="52.3%" fx="50%" fy="43.8%"><stop offset="0%" stop-color="#FFC738"/><stop offset="47.4%" stop-color="#FFC636"/><stop offset="66.5%" stop-color="#FFC22F"/><stop offset="80.5%" stop-color="#FFBB23"/><stop offset="92%" stop-color="#FFB111"/><stop offset="100%" stop-color="#FFA700"/></radialGradient></defs><g fill="none" fill-rule="evenodd"><path fill="#57576B" d="M0 0h256v256H0z"/><g fill-rule="nonzero"><path fill="url(#a)" d="M42 60.1S40.6 36.4 54.5 10c.4-.8 1.3-1.1 2-.7C62.2 11.8 82 24 92 65.2c0 0-32.3 11.3-50-5z" transform="translate(45 21)"/><path fill="url(#b)" d="M133.3 79.4c-3.9-11-12-20.4-22.9-26.7C100.2 14.3 81.1 2.7 75.7.2 75-.2 74 0 73.6.8A107.4 107.4 0 0061 46.5C37.8 52.8 21 71.7 21 93.9v1.2A459.6 459.6 0 00.6 126a4 4 0 000 4.1c6 10.4 14.7 17.5 20.4 17.9 6 .3 9.8 7 15.8 7 6.1 0 8.6-10.5 19.3-9 8 1 12.6.5 17.4-1 3 3.8 7.5 11.4 7.5 24.9 0 0 52.7-2 80-44.2a201.2 201.2 0 01-27.7-46.4z" transform="translate(45 21)"/><path fill="url(#c)" d="M91.1 125.7A45 45 0 0173 145.2a38 38 0 017.6 24.8s22.9-.9 46.4-13.4c-11.2-21.7-29.6-43.5-35.9-30.9z" transform="translate(45 21)"/><path fill="url(#d)" d="M30.5 97.8c2.2 3.6 10.6 2.7 19-2.1 8.2-4.9 13.2-11.8 11-15.5-2.2-3.6-10.6-2.7-19 2.1-8.2 4.9-13.2 11.8-11 15.5z" transform="translate(45 21)"/><path fill="url(#e)" d="M41.5 86c-3.4 1.1-9 3.7-10.4 9.6a2 2 0 002.2 2.4c3.5-.8 9.4-3.1 10.7-9.7a2 2 0 00-2.5-2.2z" transform="translate(45 21)"/><path fill="url(#f)" d="M30.4 86.5a32.5 32.5 0 0124-20c.9-.2.8-1.4 0-1.4C45 64.6 28 66.5 29 86.3c0 .8 1.1 1 1.4.2z" transform="translate(45 21)"/><path fill="url(#g)" d="M96.9 56.4c.7-.1 1.2-.8 1-1.6C90.6 18.4 76 7.5 72 5.1a1 1 0 00-.5-.1A109 109 0 0061 46.6c9.5 12.6 30.4 10.6 35.9 9.8z" transform="translate(45 21)"/><path fill="url(#h)" d="M104.7 36.7a133 133 0 015.4 16.2 13.2 13.2 0 01-12.6 16.5 13 13 0 01-13-13.2c0-6.4 4.5-11.7 10.5-13L92.7 36A20.8 20.8 0 0077 56.2C77 67.8 86.2 77 97.5 77A20.6 20.6 0 00118 56.2c0-8.9-5.5-16.5-13.3-19.5z" transform="translate(45 21)"/><path fill="url(#i)" d="M230.1 208.4l-49-49.4c-9.3 13.8-38 47.8-99.4 52.6 1.2 14.4 5 31.7 15.3 42.5 20 21 13.3 128.5 1.7 158.8-7.1-2.4-12.3-7.1-19.2-4.7-5.3 1.8-7 6.8-7.5 10.7-.3 2.7 1.8 5.1 4.5 5.1h33.8c2.5 0 4.5-2 4.5-4.5 0-3.5.9-7 2.5-10 6.9-13.4 26-52.2 26-73.6 0-26 4.8-47.4 28.6-47.4 0 41.3 21 79.8 56 102.2l36.6 23.4h-25c-11.5 0-17.4-9-26.5-5.9-5.3 1.8-7 6.8-7.5 10.7-.3 2.7 1.8 5.1 4.5 5.1h79c5.6 0 10-4.4 10-9.9v-38.6c0-62.6-24.8-122.7-68.9-167.1z" transform="translate(45 21)"/><path fill="url(#j)" d="M230.2 208.4l-49-49.4c-9.2 13.8-38 47.8-99.2 52.6.4 4.2 1 8.5 1.8 13l70.4 70.3c4.3-4 10-6.4 17.9-6.4 0 41.3 21 79.8 55.9 102.2l36.6 23.4h-25c-11.5 0-17.4-9-26.5-5.9-5.3 1.8-7 6.8-7.5 10.7-.3 2.7 1.8 5.1 4.5 5.1h79c5.5 0 9.9-4.4 9.9-9.9v-38.6c0-62.6-24.7-122.7-68.8-167.1z" transform="translate(45 21)"/><path fill="url(#k)" d="M74 184c2.7 0 5 4.7 5 10.5S76.8 205 74 205c-2.7 0-5-4.7-5-10.5s2.2-10.5 5-10.5z" transform="translate(45 21)"/><path fill="url(#l)" d="M82 178v33h-3a4.8 4.8 0 01-5-4.8v-23.4c0-2.6 2.2-4.8 4.9-4.8h3z" transform="translate(45 21)"/><path fill="url(#m)" d="M81.5 219c80.9-4.3 107.5-58.8 107.5-58.8L161.3 126s-21.5 41.1-80.3 44.3l.5 48.7z" transform="translate(45 21)"/><path fill="url(#n)" d="M161.3 126s-21.5 41-80.3 44.2v6l37 36.8c52.6-15.2 71-52.8 71-52.8L161.3 126z" transform="translate(45 21)"/><path fill="url(#o)" d="M175 179c-4.8 5-11 10.6-18.8 16L133 153.8a95 95 0 0015.9-12.8l26.1 38z" transform="translate(45 21)"/><path fill="url(#p)" d="M131 207.9c-7.3 2.8-15.3 5.3-24.2 7.1l-6.8-47.7c7.4-1.5 14-3.7 20-6.3l11 46.9z" transform="translate(45 21)"/><path fill="url(#q)" d="M104.5 199.7L118 213c4.6-1.3 9-2.8 13.1-4.5L120 161l-4.6 1.8-.1.1-2.2.8h-.2c-4 1.5-8.3 2.7-12.9 3.7l4.5 32.3z" transform="translate(45 21)"/><path fill="url(#r)" d="M81 176a6 6 0 01-.4-11.8 97.1 97.1 0 0058.2-21.6c11.8-9.8 17-19.4 17-19.4a6 6 0 018-2.5c3 1.5 4 5 2.5 8-1 1.7-23.7 44-85 47.3h-.4z" transform="translate(45 21)"/><path fill="url(#s)" d="M80 224a6 6 0 01-.4-11.9c76.4-4.1 105-57.4 105.2-57.9a6 6 0 1110.5 5.5 113 113 0 01-26.2 30.7A147.6 147.6 0 0179.9 224z" transform="translate(45 21)"/></g></g></svg>